<?xml version="1.0" standalone="no"?>
<!DOCTYPE svg PUBLIC "-//W3C//DTD SVG 20010904//EN"
 "http://www.w3.org/TR/2001/REC-SVG-20010904/DTD/svg10.dtd">
<svg version="1.0" xmlns="http://www.w3.org/2000/svg"
 width="236.000000pt" height="236.000000pt" viewBox="0 0 236.000000 236.000000"
 preserveAspectRatio="xMidYMid meet">

<g transform="translate(0.000000,236.000000) scale(0.100000,-0.100000)"
fill="#000000" stroke="none">
<path d="M802 2175 c-29 -21 -42 -95 -42 -238 1 -204 24 -305 81 -345 19 -13
17 -16 -29 -57 -49 -45 -107 -141 -132 -220 -20 -63 -18 -62 -132 -48 -96 12
-142 12 -108 0 8 -3 59 -13 113 -23 59 -10 97 -21 97 -28 0 -30 -27 -44 -99
-50 -104 -9 -110 -20 -15 -26 l82 -5 -30 -75 c-79 -196 -107 -365 -88 -521 20
-171 73 -263 180 -317 98 -49 178 -62 420 -68 442 -13 637 32 720 163 105 165
99 455 -16 738 l-32 80 81 5 c96 6 90 17 -14 26 -72 6 -99 20 -99 50 0 7 38
18 98 29 96 17 150 34 107 34 -11 0 -64 -5 -117 -12 l-97 -13 -21 60 c-36 100
-81 175 -131 220 l-47 42 34 36 c49 54 58 99 58 308 1 196 -7 240 -46 261 -29
16 -88 -52 -143 -164 -66 -138 -91 -268 -66 -355 11 -37 8 -38 -45 -16 -52 22
-194 22 -254 0 -25 -8 -48 -16 -51 -16 -4 0 -2 19 3 43 27 115 -32 319 -131
454 -40 55 -62 66 -89 48z m148 -770 c40 -21 56 -72 36 -118 -27 -66 -106 -79
-158 -27 -27 28 -30 36 -25 73 10 75 78 108 147 72z m611 -14 c21 -22 29 -39
29 -66 0 -27 -8 -44 -29 -66 -22 -21 -39 -29 -66 -29 -51 0 -95 44 -95 95 0
27 8 44 29 66 22 21 39 29 66 29 27 0 44 -8 66 -29z m-295 -52 c10 -16 -35
-49 -67 -49 -26 0 -75 41 -62 53 11 12 121 8 129 -4z m69 -324 c135 -36 242
-124 302 -251 32 -67 37 -87 41 -176 9 -198 -51 -334 -172 -389 -37 -17 -69
-19 -312 -19 l-272 0 -52 28 c-66 34 -123 112 -145 197 -23 92 -20 236 9 316
51 147 167 253 319 294 70 18 209 19 282 0z"/>
<path d="M870 1360 c-11 -11 -20 -27 -20 -35 0 -17 35 -55 51 -55 49 0 68 66
27 94 -29 20 -34 20 -58 -4z m56 -11 c10 -17 -13 -36 -27 -22 -12 12 -4 33 11
33 5 0 12 -5 16 -11z"/>
<path d="M1472 1364 c-30 -21 -29 -59 3 -80 23 -15 27 -15 50 0 32 21 33 59 3
80 -12 9 -25 16 -28 16 -3 0 -16 -7 -28 -16z m54 -15 c10 -17 -13 -36 -27 -22
-12 12 -4 33 11 33 5 0 12 -5 16 -11z"/>
<path d="M1164 821 c-33 -20 -84 -80 -84 -99 0 -22 18 -21 50 3 43 32 87 32
134 0 45 -30 46 -30 46 -5 0 28 -37 77 -76 101 -38 23 -32 23 -70 0z"/>
<path d="M843 768 c-34 -37 -53 -69 -53 -92 0 -23 18 -20 52 9 42 35 72 41
119 20 21 -10 42 -16 45 -12 22 21 -67 107 -111 107 -12 0 -35 -15 -52 -32z"/>
<path d="M1425 759 c-62 -57 -59 -91 5 -54 40 23 76 18 113 -15 19 -16 40 -30
46 -30 22 0 10 49 -22 92 -47 61 -81 63 -142 7z"/>
</g>
</svg>
